<svg xmlns="http://www.w3.org/2000/svg"
     width="400"
     height="512"
     viewBox="0 0 400 512">
 <defs>
  <radialGradient id="a" cx="347" cy="514" r="49" gradientTransform="matrix(3 0 0 5 -619 -2e3)" gradientUnits="userSpaceOnUse">
   <stop stop-color="#fff" offset="0"/>
   <stop stop-color="#a94436" offset="1"/>
  </radialGradient>
  <linearGradient id="b" x1="366" x2="395" y1="502" y2="487" gradientTransform="matrix(3 0 0 3 -619 -1e3)" gradientUnits="userSpaceOnUse">
   <stop stop-color="#fff" offset="0"/>
   <stop stop-color="#c0815e" offset="1"/>
  </linearGradient>
 </defs>
 <g transform="translate(-273 -82)">
  <path d="m280 588s0.8-121 0.8-245c0-239-20-257 87-257h300v344c0 113 21 158-98 158s-289-1-289-1z" fill="#a62c39"/>
 </g>
 <g transform="translate(-273 -82)">
  <path d="m527 131s19 4 36 32 105 246 105 246v-177l-82-132 23 28 44-36-56-4z" fill="url(#b)"/>
 </g>
 <g transform="translate(-273 -82)">
  <path d="m356 89s127 84 188 101c61 17 125 34 125 34l-146 357 63 3 82-201-3-294z" fill="url(#a)" opacity=".7"/>
  <path d="m474 465 132 126-246-5s-8-78-5-118c3-41 15-41 15-41z" fill="#fff" fill-opacity=".4"/>
 </g>
 <g transform="translate(-273 -82)">
  <path d="m596 589-119-122-109-41-84-187 90-149-60-3-24 23-9 18-6 464z" fill-opacity=".4"/>
  <path d="m669 394s-120 38-192 74c-72 36-110 122-110 122s154-8 211-5c58 3 84 3 90-78 5-80 1-113 1-113z" fill="#83222d" opacity=".5"/>
 </g>
 <g transform="translate(-273 -82)" fill="#fff">
  <path d="m317 470v75h19v-20l18 17h30l-23-23s17-0.3 18-25c0-22-17-25-36-25h-25zm20 20h17v13h-17z"/>
  <path d="m420 470c-11-0.06-25 0.9-25 21v52h20v-13h19v12h20v-55c0-17-19-18-29-18-1 0-3 0.01-4 0zm-5 19h19v21h-19z"/>
  <rect x="474" y="470" width="20" height="72"/>
  <path d="m516 471v72h49v-19h-29v-53z"/>
  <path d="m630 471v19h-33v7h14c7 0 23-0.3 23 23s-11 24-32 24h-26v-18h30c9 0 9-3 9-5 0-3-5-4-14-4-9 0-27-5-27-22s9-25 27-25c18 0 28 0.3 28 0.3z"/>
 </g>
 <g transform="translate(-273 -82)" fill="#fff">
  <path d="m335 449h170s-38-85-28-164c10-78 72-114 107-118 35-4 54 18 54 18l8-11s-51-51-115-45c-64 6-108 48-136 99-28 51-44 87-54 140-11 54-6 82-6 82z"/>
  <path d="m301 363 33 3-6 33-31-4z"/>
  <path d="m353 293 9-25-29-11-10 27z"/>
  <path d="m395 208 17-20-22-15-18 20z"/>
  <path d="m440 129 15 18 21-12-15-17z"/>
  <path d="m515 108 4 18 26-0.6-3-17z"/>
  <path d="m604 128-0.6 11 18 10 4-6z"/>
  <path d="m600 177v10l17 2v-8z"/>
  <path d="m545 185 8 15 12-10-3-10z"/>
  <path d="m519 205 13 19-8 13-19-20z"/>
  <path d="m493 258-8 17 22 18 5-21z"/>
  <path d="m484 316-1 22 27 11-1-21z"/>
  <path d="m492 395 6 23 34 2-12-25z"/>
 </g>
 <g transform="translate(-273 -82)">
  <path d="m280 588s0.8-121 0.8-245c0-239-20-257 87-257h300v344c0 113 16 158-98 158s-289-1-289-1z" fill="none" stroke="#5e000e" stroke-width="10"/>
 </g>
</svg>
