<svg xmlns="http://www.w3.org/2000/svg"
     width="512"
     height="512"
     viewBox="0 0 512 512">
  <path fill="#F2F2F2"
        fill-opacity=".7"
        d="m512 256c0 141.38-114.62 256-256 256-86.298 0-162.63-42.705-209-108.14h-0.01c-11.786-16.635-21.64-34.732-29.226-53.979-3.835-9.728-7.095-19.738-9.728-30.009v-0.01c-5.246-20.419-8.036-41.819-8.036-63.866 0-141.38 114.62-256 256-256 79.182 0 149.96 35.944 196.91 92.411 16.959 20.376 30.804 43.426 40.814 68.42 11.786 29.424 18.275 61.544 18.275 95.169z"/>
  <path fill="#9b0a0e"
        d="m493.72 160.83c-0.021 0.199-0.042 0.408-0.063 0.616-1.411 12.654-5.402 26.269-11.776 40.396l-0.01 0.01-110.22 280.45-295.2-69.235c-3.626-0.711-7.147-1.536-10.553-2.476-6.781-1.839-13.093-4.086-18.902-6.729h-0.01c-17.742-25.046-31.107-53.415-38.954-83.989 0.878-3.668 2.288-9.331 4.148-16.29 7.168-26.843 21.096-72.85 37.836-97.04l1.63 55.965 110.3 7.356 149.51-71.084 64.543-94.772-28.588-45.756c47.689 11.567 77.908 22.016 96.935 30.26 3.156 1.358 5.998 2.664 8.558 3.897 19.111 9.226 22.779 14.838 22.779 14.838 6.301 5.308 11.024 11.536 13.897 18.662 4.18 10.344 5.486 22.141 4.138 34.92z"/>
  <ellipse fill="#ef0e13"
           transform="matrix(-.4527 -.8917 .8917 -.4527 159.23 416.76)" cx="207.52" cy="159.51" rx="74.147" ry="167.27"/>
  <g fill="#f5655e">
    <path d="m301.18 369.12 70.476 113.19-185.65-72.87c36.652-7.566 76.008-20.941 115.18-40.321z"/>
    <path d="m50.019 206.55 1.634 55.966-39.47 41.072c7.173-26.84 21.095-72.847 37.836-97.038z"/>
  </g>
  <g fill="#950c10">
    <path d="m51.649 262.51-33.886 87.374c-3.835-9.728-7.095-19.738-9.728-30.009v-0.01c0.888-3.668 2.288-9.331 4.148-16.279z"/>
    <path d="m376.01 104.01 117.65 57.437c-1.414 12.656-5.4 26.268-11.781 40.402l-8e-3 8e-3c-4.771 10.589-10.891 21.472-18.261 32.452z"/>
  </g>
  <g fill="#ef0e13">
    <path d="m481.87 201.86-110.22 280.45 28.228-177.87c26.422-22.607 47.951-46.595 63.728-70.125 7.37-10.981 13.488-21.864 18.26-32.451z"/>
    <polygon points="463.61 234.31 311.47 198.78 376.01 104.01"/>
  </g>
  <path fill="#f5655e"
        d="m444.36 88.51-68.344 15.499-28.596-45.761c47.69 11.577 77.912 22.019 96.94 30.262z"/>
  <path fill="#950c10"
        d="m311.47 198.78 88.418 105.65c-26.594 22.762-58.139 44.127-93.786 62.225-1.643 0.834-3.276 1.65-4.918 2.46z"/>
  <polygon fill="#ef0e13"
           points="161.95 269.86 311.47 198.78 301.18 369.12"/>
  <path fill="#950c10"
        d="m161.95 269.86 139.23 99.252c-39.168 19.38-78.524 32.754-115.18 40.321z"/>
  <polygon fill="#f5655e"
           points="51.653 262.51 161.95 269.86 65.902 410.6"/>
</svg>
